<svg width="110" height="24" viewBox="0 0 110 24" fill="none" xmlns="http://www.w3.org/2000/svg">
<path d="M9.19678 21.5H13.1968V13.49H16.8008L17.1968 9.51H13.1968V7.5C13.1968 7.23478 13.3021 6.98043 13.4897 6.79289C13.6772 6.60536 13.9316 6.5 14.1968 6.5H17.1968V2.5H14.1968C12.8707 2.5 11.5989 3.02678 10.6612 3.96447C9.72357 4.90215 9.19678 6.17392 9.19678 7.5V9.51H7.19678L6.80078 13.49H9.19678V21.5Z" fill="white"/>
<path d="M56.001 9C55.2054 9 54.4423 9.31607 53.8797 9.87868C53.3171 10.4413 53.001 11.2044 53.001 12C53.001 12.7956 53.3171 13.5587 53.8797 14.1213C54.4423 14.6839 55.2054 15 56.001 15C56.7966 15 57.5597 14.6839 58.1223 14.1213C58.6849 13.5587 59.001 12.7956 59.001 12C59.001 11.2044 58.6849 10.4413 58.1223 9.87868C57.5597 9.31607 56.7966 9 56.001 9ZM56.001 7C57.3271 7 58.5989 7.52678 59.5365 8.46447C60.4742 9.40215 61.001 10.6739 61.001 12C61.001 13.3261 60.4742 14.5979 59.5365 15.5355C58.5989 16.4732 57.3271 17 56.001 17C54.6749 17 53.4031 16.4732 52.4655 15.5355C51.5278 14.5979 51.001 13.3261 51.001 12C51.001 10.6739 51.5278 9.40215 52.4655 8.46447C53.4031 7.52678 54.6749 7 56.001 7ZM62.501 6.75C62.501 7.08152 62.3693 7.39946 62.1349 7.63388C61.9005 7.8683 61.5825 8 61.251 8C60.9195 8 60.6015 7.8683 60.3671 7.63388C60.1327 7.39946 60.001 7.08152 60.001 6.75C60.001 6.41848 60.1327 6.10054 60.3671 5.86612C60.6015 5.6317 60.9195 5.5 61.251 5.5C61.5825 5.5 61.9005 5.6317 62.1349 5.86612C62.3693 6.10054 62.501 6.41848 62.501 6.75ZM56.001 4C53.527 4 53.123 4.007 51.972 4.058C51.188 4.095 50.662 4.2 50.174 4.39C49.7658 4.54037 49.3967 4.78063 49.094 5.093C48.7813 5.39562 48.5407 5.76474 48.39 6.173C48.2 6.663 48.095 7.188 48.059 7.971C48.007 9.075 48 9.461 48 12C48 14.475 48.007 14.878 48.058 16.029C48.095 16.812 48.2 17.339 48.389 17.826C48.559 18.261 48.759 18.574 49.091 18.906C49.428 19.242 49.741 19.443 50.171 19.609C50.665 19.8 51.191 19.906 51.971 19.942C53.075 19.994 53.461 20 56 20C58.475 20 58.878 19.993 60.029 19.942C60.811 19.905 61.337 19.8 61.826 19.611C62.2342 19.4606 62.6033 19.2204 62.906 18.908C63.243 18.572 63.444 18.259 63.61 17.828C63.8 17.336 63.906 16.81 63.942 16.028C63.994 14.925 64 14.538 64 12C64 9.526 63.993 9.122 63.942 7.971C63.905 7.189 63.799 6.661 63.61 6.173C63.4596 5.76483 63.2194 5.39572 62.907 5.093C62.6044 4.78027 62.2353 4.53966 61.827 4.389C61.337 4.199 60.811 4.094 60.029 4.058C58.926 4.006 58.54 4 56 4M56 2C58.717 2 59.056 2.01 60.123 2.06C61.187 2.11 61.913 2.277 62.55 2.525C63.21 2.779 63.766 3.123 64.322 3.678C64.8307 4.17773 65.2242 4.78247 65.475 5.45C65.722 6.087 65.89 6.813 65.94 7.878C65.987 8.944 66 9.283 66 12C66 14.717 65.99 15.056 65.94 16.122C65.89 17.188 65.722 17.912 65.475 18.55C65.2242 19.2175 64.8307 19.8223 64.322 20.322C63.8223 20.8307 63.2175 21.2242 62.55 21.475C61.913 21.722 61.187 21.89 60.123 21.94C59.056 21.987 58.717 22 56 22C53.283 22 52.944 21.99 51.877 21.94C50.813 21.89 50.088 21.722 49.45 21.475C48.7825 21.2242 48.1777 20.8307 47.678 20.322C47.1693 19.8223 46.7758 19.2175 46.525 18.55C46.277 17.913 46.11 17.187 46.06 16.122C46.012 15.056 46 14.717 46 12C46 9.283 46.01 8.944 46.06 7.878C46.11 6.812 46.277 6.088 46.525 5.45C46.7758 4.78247 47.1693 4.17773 47.678 3.678C48.1777 3.16931 48.7825 2.77582 49.45 2.525C50.087 2.277 50.812 2.11 51.877 2.06C52.945 2.013 53.284 2 56.001 2" fill="white"/>
<g clip-path="url(#clip0_1147_6320)">
<mask id="mask0_1147_6320" style="mask-type:luminance" maskUnits="userSpaceOnUse" x="88" y="1" width="22" height="22">
<path d="M88 1H110V23H88V1Z" fill="white"/>
</mask>
<g mask="url(#mask0_1147_6320)">
<path d="M105.325 2.03076H108.699L101.329 10.4756L110 21.969H103.211L97.8906 14.9998L91.8091 21.969H88.4321L96.3144 12.9333L88 2.03233H94.9614L99.7637 8.40133L105.325 2.03076ZM104.139 19.945H106.009L93.94 3.94948H91.9349L104.139 19.945Z" fill="white"/>
</g>
</g>
<defs>
<clipPath id="clip0_1147_6320">
<rect width="22" height="22" fill="white" transform="translate(88 1)"/>
</clipPath>
</defs>
</svg>
