<svg width="25" height="30" viewBox="0 0 25 30" fill="none" xmlns="http://www.w3.org/2000/svg">
<path d="M20.8423 16.0157C20.8568 14.9118 21.1572 13.8294 21.7153 12.8693C22.2735 11.9092 23.0713 11.1025 24.0346 10.5243C23.4227 9.67108 22.6154 8.96888 21.6768 8.47352C20.7383 7.97815 19.6943 7.70327 18.6279 7.67069C16.3531 7.43757 14.1478 8.99964 12.9886 8.99964C11.807 8.99964 10.0222 7.69384 8.10027 7.73244C6.85713 7.77165 5.64559 8.12458 4.58369 8.75684C3.5218 9.3891 2.64577 10.2791 2.04096 11.3402C-0.578903 15.7687 1.37528 22.277 3.88493 25.8567C5.14057 27.6096 6.60804 29.5675 8.52823 29.4981C10.4072 29.422 11.109 28.3283 13.3771 28.3283C15.6242 28.3283 16.2826 29.4981 18.2417 29.454C20.258 29.422 21.5283 27.6933 22.7399 25.9239C23.6421 24.6749 24.3363 23.2945 24.7969 21.8339C23.6255 21.3502 22.6258 20.5405 21.9226 19.5059C21.2194 18.4712 20.8436 17.2574 20.8423 16.0157Z" fill="white"/>
<path d="M17.1402 5.31651C18.2395 4.02806 18.7811 2.37198 18.65 0.699951C16.9704 0.872174 15.419 1.65587 14.3048 2.89488C13.76 3.50017 13.3428 4.20435 13.0769 4.96716C12.8111 5.72997 12.7018 6.53646 12.7554 7.34051C13.5955 7.34896 14.4266 7.17119 15.1861 6.82059C15.9456 6.47 16.6137 5.95573 17.1402 5.31651Z" fill="#2D2D2D"/>
</svg>
