<svg width="150" height="150" viewBox="0 0 150 150" fill="none" xmlns="http://www.w3.org/2000/svg">
<g clip-path="url(#clip0_794_7158)">
<path d="M81.2339 103.148L64.1494 134.403C63.6374 135.34 62.8827 136.121 61.9646 136.666C61.0464 137.21 59.9986 137.498 58.9311 137.498C55.0085 137.498 52.1603 133.767 53.1941 129.983L61.4409 99.8027L81.2339 103.148Z" fill="#F37C7C"/>
<path d="M62.1184 102.423C63.7464 113.262 55.3956 122.583 44.8678 122.583H41.7887C28.3188 122.583 16.9247 111.166 19.1557 97.9551L62.1184 102.423Z" fill="#E94444"/>
<path d="M44.868 116.447H41.7889C39.9129 116.445 38.0495 116.141 36.2703 115.547C35.7263 115.356 35.2792 114.958 35.0253 114.441C34.7714 113.923 34.7312 113.326 34.9131 112.779C35.0951 112.232 35.4848 111.779 35.9982 111.516C36.5116 111.254 37.1075 111.204 37.6575 111.377C38.9893 111.823 40.3844 112.051 41.7889 112.053H44.868C47.1259 112.053 49.2497 110.942 50.549 109.081C51.8709 107.188 52.1462 104.786 51.3046 102.493C51.1075 101.947 51.1346 101.345 51.38 100.819C51.6254 100.293 52.0691 99.885 52.6142 99.6849C53.1593 99.4848 53.7614 99.5086 54.289 99.7511C54.8166 99.9936 55.2267 100.435 55.4298 100.979C56.7734 104.639 56.3079 108.509 54.1522 111.597C52.0317 114.634 48.5609 116.447 44.868 116.447Z" fill="#D83131"/>
<path d="M99.0853 105.129H27.8109C20.1231 105.129 13.1637 102.009 8.12959 96.9667C4.42764 93.2586 4.42031 87.2554 8.12549 83.5505L10.5873 81.0887L10.1227 81.5533C6.41455 85.2614 0.0225586 82.6842 0.000292969 77.4403L0 77.3176C0 59.5426 7.15518 43.439 18.7421 31.7296C21.0627 29.3847 24.8396 29.353 27.1726 31.6856L27.9806 32.4937C25.3354 29.8484 25.7701 25.4437 28.8817 23.3671L28.8814 23.3668C39.1658 16.5043 51.5229 12.5029 64.8149 12.5029H69.0712C72.3457 12.5029 75.0003 15.1575 75.0003 18.4317C75.0003 15.1572 77.6549 12.5029 80.9291 12.5029H94.171C104.036 12.5029 113.48 15.0002 121.781 19.4952C125.251 21.3743 125.9 26.0882 123.11 28.879L124.585 27.4045C126.807 25.182 130.376 25.0818 132.725 27.1704C139.597 33.2814 145.008 41.0861 148.441 50.0369C154.336 65.6697 142.784 82.3733 126.076 82.3733H120.005C119.815 82.3733 119.667 82.5362 119.684 82.7261C119.733 83.3105 119.759 83.9021 119.759 84.4994C119.759 95.907 110.499 105.152 99.0853 105.129Z" fill="#F9B1B1"/>
<path d="M111.039 22.8426L112.513 21.3681C114.736 19.1456 118.305 19.0454 120.653 21.134C122.113 22.4327 123.506 23.8055 124.825 25.247C125.039 22.9979 123.972 20.6813 121.782 19.4948C118.562 17.7507 115.183 16.3157 111.693 15.209C113.294 17.4643 113.167 20.7133 111.039 22.8426ZM148.442 50.0368C145.008 41.0855 139.597 33.2811 132.725 27.1697C130.792 25.45 128.03 25.2147 125.875 26.4262C130.295 31.5297 133.86 37.4588 136.369 44.0005C142.265 59.6333 130.712 76.3369 114.005 76.3369H109.765C109.214 76.3369 108.686 76.5558 108.296 76.9454C107.907 77.335 107.688 77.8634 107.688 78.4144V78.463C107.688 89.8709 98.4279 99.1161 87.0142 99.0924H15.7398C13.715 99.0936 11.6961 98.8744 9.71875 98.4388C14.5823 102.609 20.9031 105.129 27.8122 105.129H99.0865C110.5 105.152 119.76 95.9072 119.76 84.4993C119.76 83.902 119.735 83.3105 119.685 82.726C119.681 82.6813 119.686 82.6362 119.7 82.5936C119.715 82.5511 119.738 82.5119 119.768 82.4788C119.798 82.4456 119.835 82.419 119.876 82.4009C119.917 82.3827 119.961 82.3733 120.006 82.3732H126.077C142.785 82.3729 154.337 65.6693 148.442 50.0368Z" fill="#F79595"/>
<path d="M22.3649 29.9859L35.2125 42.8335C35.6245 43.2455 36.1834 43.477 36.7661 43.477C37.3488 43.477 37.9076 43.2455 38.3197 42.8335C38.7317 42.4214 38.9632 41.8626 38.9632 41.2799C38.9632 40.6972 38.7317 40.1383 38.3197 39.7263L26.2755 27.6817C26.0973 29.3839 26.6481 31.1619 27.98 32.4937L27.172 31.6857C25.8556 30.3694 24.0797 29.806 22.3649 29.9859ZM85.3002 94.0122C85.8829 94.0122 86.4418 93.7807 86.8539 93.3686C87.2659 92.9566 87.4974 92.3977 87.4974 91.8149C87.4974 91.2322 87.2659 90.6733 86.8539 90.2612C86.4418 89.8492 85.8829 89.6177 85.3002 89.6177H57.147C48.6975 89.6177 40.7537 92.908 34.7792 98.8828L28.5334 105.129H34.7481L37.8864 101.99C43.0309 96.8455 49.8712 94.0122 57.1468 94.0122H85.3002ZM62.0203 27.0762L61.214 22.9254C61.0978 22.3584 60.7625 21.8601 60.281 21.5389C59.7995 21.2177 59.2108 21.0994 58.6426 21.2098C58.0744 21.3201 57.5727 21.6502 57.2465 22.1283C56.9203 22.6065 56.7959 23.194 56.9004 23.7633L57.7066 27.9141C58.1493 30.1922 56.8579 32.4677 54.7031 33.2071C52.9353 33.8143 51.213 34.5465 49.5492 35.3982L45.0873 26.3001C44.8304 25.7774 44.3765 25.378 43.8253 25.1898C43.2742 25.0016 42.6708 25.0399 42.1479 25.2963C41.6249 25.5527 41.2252 26.0063 41.0365 26.5573C40.8478 27.1083 40.8856 27.7117 41.1416 28.2349L49.9119 46.1191C50.0389 46.3782 50.2157 46.6098 50.4322 46.8005C50.6487 46.9913 50.9007 47.1375 51.1738 47.2309C51.4468 47.3242 51.7356 47.3628 52.0235 47.3446C52.3115 47.3263 52.5931 47.2514 52.8521 47.1243C53.3754 46.8677 53.7752 46.4138 53.9638 45.8624C54.1524 45.311 54.1142 44.7073 53.8576 44.1841L51.4843 39.3439C52.983 38.5727 54.5355 37.9107 56.1296 37.3632C60.346 35.9168 62.8784 31.4938 62.0203 27.0762ZM20.7193 71.2503C17.0701 67.6011 16.4399 61.7968 19.2202 57.4494L20.9862 54.6879C21.295 54.197 21.3972 53.604 21.2706 53.0381C21.1439 52.4723 20.7987 51.9794 20.3102 51.6669C19.8217 51.3545 19.2295 51.2478 18.6627 51.3701C18.0959 51.4925 17.6004 51.834 17.2843 52.3201L15.5182 55.0816C11.6346 61.154 12.5153 69.2607 17.6121 74.3578L21.6911 78.4368C22.12 78.8657 22.6825 79.0805 23.2447 79.0805C23.8069 79.0805 24.3694 78.866 24.7983 78.4368C25.2103 78.0247 25.4418 77.4659 25.4418 76.8832C25.4418 76.3005 25.2103 75.7416 24.7983 75.3296L20.7193 71.2503ZM124.063 82.3731C123.647 77.9168 121.948 73.6673 119.086 70.1358C115.644 65.8884 110.887 63.0712 105.632 62.0742L108.589 53.204C108.773 52.6511 108.73 52.0477 108.47 51.5265C108.209 51.0052 107.752 50.6089 107.199 50.4246C106.646 50.2403 106.043 50.2832 105.522 50.5439C105.001 50.8045 104.604 51.2616 104.42 51.8144L101.134 61.672H88.5366L91.9605 48.912C92.0353 48.6333 92.0545 48.3426 92.0169 48.0565C91.9794 47.7704 91.8858 47.4945 91.7417 47.2445C91.5975 46.9946 91.4054 46.7755 91.1766 46.5997C90.9477 46.424 90.6865 46.295 90.4078 46.2202C90.1291 46.1454 89.8384 46.1263 89.5523 46.1638C89.2662 46.2014 88.9903 46.2949 88.7403 46.4391C88.4904 46.5833 88.2712 46.7753 88.0955 47.0041C87.9197 47.233 87.7908 47.4942 87.716 47.7729L83.9862 61.6717H70.691L66.9612 47.7729C66.8039 47.2171 66.4341 46.7455 65.9318 46.4603C65.4295 46.175 64.835 46.099 64.2771 46.2488C63.7191 46.3985 63.2426 46.7619 62.9506 47.2603C62.6586 47.7587 62.5745 48.3521 62.7167 48.912L66.1406 61.672H55.0922C54.5094 61.672 53.9505 61.9035 53.5385 62.3155C53.1264 62.7276 52.8949 63.2865 52.8949 63.8692C52.8949 64.452 53.1264 65.0109 53.5385 65.4229C53.9505 65.835 54.5094 66.0665 55.0922 66.0665H101.343C106.928 66.0665 112.15 68.5582 115.671 72.9026C118.014 75.7936 119.391 79.2873 119.7 82.9523C119.695 82.8767 119.689 82.8011 119.682 82.7256C119.678 82.6809 119.683 82.6358 119.698 82.5932C119.712 82.5507 119.735 82.5115 119.765 82.4784C119.795 82.4452 119.832 82.4186 119.873 82.4005C119.914 82.3823 119.959 82.3729 120.003 82.3728L124.063 82.3731Z" fill="#F79595"/>
<path d="M105.282 81.3543C104.268 80.3393 103.137 79.4494 101.912 78.7038L105.72 74.8955C106.132 74.4835 106.363 73.9246 106.363 73.3419C106.363 72.7592 106.132 72.2003 105.72 71.7883C105.308 71.3763 104.749 71.1448 104.166 71.1448C103.584 71.1448 103.025 71.3763 102.613 71.7883L97.5859 76.815C95.9905 76.3623 94.3398 76.1334 92.6814 76.1351H54.0687C47.8557 76.1351 42.0145 73.7157 37.6214 69.3224L30.6148 62.3157C30.2027 61.9037 29.6439 61.6722 29.0612 61.6722C28.4784 61.6722 27.9196 61.9037 27.5075 62.3157C27.0955 62.7278 26.8641 63.2866 26.8641 63.8693C26.8641 64.452 27.0955 65.0109 27.5075 65.423L34.5142 72.4296C39.7375 77.6529 46.682 80.5293 54.069 80.5293H92.6817C94.2561 80.5293 95.7889 80.7985 97.2279 81.315C97.3428 81.3698 97.4614 81.4144 97.5824 81.448C99.2834 82.114 100.844 83.1309 102.175 84.4612L102.944 85.2303C103.373 85.6592 103.935 85.8739 104.498 85.8739C105.06 85.8739 105.622 85.6595 106.051 85.2303C106.463 84.8182 106.695 84.2594 106.695 83.6767C106.695 83.094 106.463 82.5351 106.051 82.123L105.282 81.3543ZM119.584 87.1996C119.521 87.6536 119.442 88.1052 119.347 88.5537C119.329 88.639 119.316 88.7253 119.308 88.8121C119.421 88.2818 119.513 87.7439 119.584 87.1996ZM35.9486 50.9559C35.5365 51.3679 35.3051 51.9268 35.3051 52.5095C35.3051 53.0922 35.5365 53.651 35.9486 54.0631L44.2815 62.396C44.7104 62.8249 45.2729 63.0396 45.8351 63.0396C46.3973 63.0396 46.9598 62.8252 47.3887 62.396C47.8007 61.9839 48.0322 61.4251 48.0322 60.8424C48.0322 60.2597 47.8007 59.7008 47.3887 59.2888L39.0558 50.9559C38.6437 50.5438 38.0849 50.3124 37.5022 50.3124C36.9195 50.3124 36.3606 50.5438 35.9486 50.9559ZM127.892 72.4955C125.856 67.6185 122.734 63.5649 118.903 60.4155C117.999 59.6726 117.469 58.6111 117.411 57.4267C117.383 56.8307 117.479 56.2353 117.694 55.6786C117.908 55.1219 118.237 54.6161 118.658 54.1938L122.589 50.263C123.001 49.8509 123.233 49.2921 123.233 48.7094C123.233 48.1267 123.001 47.5678 122.589 47.1558C122.177 46.7437 121.618 46.5123 121.035 46.5123C120.453 46.5123 119.894 46.7437 119.482 47.1558L115.551 51.0865C114.696 51.9427 114.03 52.968 113.594 54.0967C113.159 55.2254 112.964 56.4327 113.022 57.6411C113.139 60.0443 114.266 62.2929 116.113 63.8107C119.51 66.6033 122.139 70.1227 123.836 74.1886C124.003 74.5888 124.285 74.9307 124.646 75.1712C125.007 75.4117 125.431 75.54 125.865 75.54C126.227 75.5399 126.583 75.4504 126.902 75.2795C127.221 75.1086 127.493 74.8616 127.693 74.5604C127.894 74.2591 128.017 73.9131 128.051 73.5528C128.086 73.1926 128.031 72.8294 127.892 72.4955ZM15.1161 92.6207C14.7041 93.0328 14.4727 93.5916 14.4727 94.1743C14.4727 94.757 14.7041 95.3159 15.1161 95.7279C15.5282 96.1399 16.087 96.3714 16.6697 96.3714C17.2525 96.3714 17.8113 96.1399 18.2234 95.7279L20.7112 93.24C24.0654 89.8858 28.5253 88.0387 33.2688 88.0387H37.5022C38.0849 88.0387 38.6438 87.8072 39.0559 87.3951C39.4679 86.983 39.6994 86.4242 39.6994 85.8414C39.6994 85.2587 39.4679 84.6998 39.0559 84.2877C38.6438 83.8756 38.0849 83.6441 37.5022 83.6441H33.2688C27.3514 83.6441 21.7879 85.9486 17.6037 90.1328L15.1161 92.6207ZM114.176 37.813C114.605 38.2419 115.168 38.4566 115.73 38.4566C116.292 38.4566 116.855 38.2422 117.284 37.813L129.396 25.7002C127.675 25.5209 125.896 26.0934 124.585 27.4041L123.111 28.8786C124.448 27.5403 124.995 25.7603 124.819 24.0625L114.176 34.7058C113.764 35.1178 113.533 35.6767 113.533 36.2594C113.533 36.8421 113.764 37.4009 114.176 37.813ZM150 58.6012L132.901 62.021C132.618 62.0776 132.349 62.1894 132.109 62.3499C131.869 62.5105 131.663 62.7167 131.503 62.9568C131.343 63.1969 131.232 63.4662 131.176 63.7492C131.12 64.0323 131.12 64.3236 131.177 64.6066C131.234 64.8895 131.345 65.1586 131.506 65.3983C131.667 65.6381 131.873 65.8439 132.113 66.0039C132.353 66.164 132.622 66.2752 132.905 66.3312C133.188 66.3872 133.48 66.3869 133.763 66.3303L149.53 63.1768C149.836 61.6706 149.993 60.1381 150 58.6012Z" fill="#F79595"/>
<path d="M134.883 43.7809C135.295 43.3688 135.526 42.81 135.526 42.2272C135.526 41.6445 135.295 41.0857 134.883 40.6736C134.679 40.4696 134.436 40.3077 134.17 40.1972C133.903 40.0868 133.618 40.0299 133.329 40.0299C133.04 40.0299 132.755 40.0868 132.488 40.1972C132.222 40.3077 131.979 40.4696 131.775 40.6736L129.441 43.008C127.525 44.924 126.989 47.8496 128.107 50.2883C128.495 51.1365 128.857 51.9966 129.191 52.8676C129.354 53.2982 129.498 53.7354 129.624 54.178L126.326 54.8378C126.043 54.8944 125.774 55.0062 125.534 55.1667C125.294 55.3273 125.089 55.5335 124.929 55.7736C124.768 56.0137 124.657 56.283 124.601 56.566C124.545 56.8491 124.546 57.1404 124.602 57.4234C124.659 57.7063 124.771 57.9754 124.931 58.2151C125.092 58.4549 125.298 58.6607 125.538 58.8207C125.778 58.9808 126.047 59.092 126.33 59.148C126.614 59.204 126.905 59.2037 127.188 59.1471L132.679 58.049H132.679L142.093 56.1661C142.665 56.0519 143.167 55.7153 143.491 55.2304C143.814 54.7455 143.931 54.1521 143.817 53.5807C143.703 53.0092 143.366 52.5066 142.881 52.1833C142.396 51.86 141.803 51.7426 141.232 51.8568L133.945 53.3141C133.763 52.6341 133.547 51.9636 133.299 51.3052C132.93 50.3434 132.531 49.3936 132.102 48.4572C131.746 47.68 131.925 46.739 132.549 46.1152L134.883 43.7809ZM77.1953 13.8242C75.855 14.9111 74.998 16.5714 74.998 18.4317C74.998 16.5714 74.1411 14.9114 72.8008 13.8242V27.5105C72.8008 28.0933 73.0323 28.6522 73.4443 29.0642C73.8564 29.4763 74.4153 29.7078 74.998 29.7078C75.5808 29.7078 76.1397 29.4763 76.5518 29.0642C76.9638 28.6522 77.1953 28.0933 77.1953 27.5105V13.8242ZM74.998 33.6465C74.4153 33.6465 73.8564 33.878 73.4443 34.2901C73.0323 34.7021 72.8008 35.261 72.8008 35.8438V48.3433C72.8008 48.926 73.0323 49.4849 73.4443 49.897C73.8564 50.309 74.4153 50.5405 74.998 50.5405C75.5808 50.5405 76.1397 50.309 76.5518 49.897C76.9638 49.4849 77.1953 48.926 77.1953 48.3433V35.8438C77.1953 35.261 76.9638 34.7021 76.5518 34.2901C76.1397 33.878 75.5808 33.6465 74.998 33.6465ZM93.6883 21.8152C93.7924 21.2418 93.6645 20.6506 93.3328 20.1715C93.001 19.6924 92.4924 19.3647 91.919 19.2605C91.3457 19.1564 90.7544 19.2843 90.2753 19.6161C89.7962 19.9479 89.4685 20.4564 89.3644 21.0298L88.6803 24.7944C87.845 29.3911 90.5837 33.8302 95.0503 35.1201C96.6631 35.5865 98.2366 36.1797 99.756 36.894L98.2302 40.1378C98.1057 40.3991 98.034 40.6824 98.0194 40.9715C98.0047 41.2606 98.0473 41.5498 98.1447 41.8223C98.2421 42.0949 98.3924 42.3455 98.587 42.5599C98.7816 42.7742 99.0166 42.9479 99.2785 43.0711C99.5404 43.1943 99.8241 43.2646 100.113 43.2778C100.402 43.2911 100.691 43.2471 100.963 43.1483C101.236 43.0496 101.485 42.898 101.699 42.7024C101.912 42.5068 102.085 42.2709 102.207 42.0084L110.043 25.349C110.167 25.0877 110.239 24.8044 110.253 24.5153C110.268 24.2262 110.226 23.9371 110.128 23.6645C110.031 23.3919 109.88 23.1413 109.686 22.927C109.491 22.7126 109.256 22.5389 108.994 22.4157C108.732 22.2925 108.449 22.2222 108.16 22.209C107.87 22.1957 107.582 22.2397 107.309 22.3385C107.037 22.4373 106.787 22.5888 106.574 22.7844C106.361 22.98 106.188 23.2159 106.066 23.4784L101.626 32.9176C99.8968 32.1041 98.1057 31.4289 96.2696 30.8981C93.9774 30.2363 92.5735 27.95 93.0042 25.5802L93.6883 21.8152Z" fill="#F79595"/>
<path d="M135.496 41.8489C135.436 41.5004 135.292 41.1718 135.076 40.8912C135.219 41.2088 135.359 41.5281 135.496 41.8489ZM125.874 26.4259C126.308 26.9262 126.732 27.4338 127.148 27.9487L129.397 25.6999C128.176 25.5721 126.945 25.8257 125.874 26.4259ZM124.825 25.247C124.862 24.8529 124.86 24.4562 124.82 24.0625L124.252 24.6303C124.444 24.8345 124.635 25.0398 124.825 25.247ZM143.82 53.5803C143.705 53.0089 143.369 52.5063 142.884 52.183C142.399 51.8597 141.806 51.7423 141.234 51.8564L137.928 52.5177C137.924 54.0536 137.77 55.5854 137.468 57.0912L142.096 56.1657C142.379 56.1091 142.648 55.9974 142.887 55.8368C143.127 55.6763 143.333 55.4701 143.493 55.23C143.653 54.9899 143.764 54.7207 143.82 54.4376C143.876 54.1545 143.876 53.8632 143.82 53.5803ZM150.001 58.6012L136.184 61.3645C135.465 63.1366 134.538 64.8173 133.423 66.3713C133.537 66.3665 133.651 66.3528 133.763 66.3303L149.53 63.1768C149.836 61.6706 149.994 60.1381 150.001 58.6012ZM119.585 87.1999C119.521 87.6538 119.442 88.1054 119.347 88.5537C119.329 88.639 119.316 88.7253 119.308 88.8121C119.421 88.2818 119.513 87.7442 119.585 87.1999ZM127.892 72.4955C127.829 72.3443 127.765 72.1938 127.7 72.044C126.49 72.8936 125.204 73.6276 123.857 74.2363C124.03 74.6244 124.312 74.954 124.668 75.1853C125.024 75.4166 125.44 75.5397 125.865 75.5397C126.147 75.5397 126.434 75.485 126.71 75.3695C126.977 75.2584 127.219 75.0959 127.422 74.8913C127.626 74.6868 127.787 74.4441 127.896 74.1772C128.006 73.9103 128.062 73.6245 128.061 73.3359C128.061 73.0474 128.003 72.7618 127.892 72.4955ZM37.8882 101.99C38.944 100.933 40.0839 99.9641 41.2966 99.0921H34.5712L28.5352 105.128H34.7499L37.8882 101.99ZM124.064 82.3729C123.827 79.8056 123.156 77.297 122.081 74.9535C120.669 75.4573 119.211 75.8256 117.729 76.0536C118.831 78.1967 119.499 80.5375 119.702 82.9527C119.697 82.8771 119.691 82.8015 119.684 82.726C119.68 82.6813 119.685 82.6362 119.7 82.5936C119.714 82.5511 119.737 82.5119 119.767 82.4788C119.797 82.4456 119.834 82.419 119.875 82.4009C119.916 82.3827 119.961 82.3733 120.006 82.3732H124.064V82.3729Z" fill="#F37C7C"/>
</g>
<defs>
<clipPath id="clip0_794_7158">
<rect width="150" height="150" fill="white"/>
</clipPath>
</defs>
</svg>
