<svg width="150" height="150" viewBox="0 0 150 150" fill="none" xmlns="http://www.w3.org/2000/svg">
<g clip-path="url(#clip0_794_7117)">
<path d="M75.0005 136.364C108.891 136.364 136.364 108.89 136.364 75C136.364 41.1097 108.891 13.6362 75.0005 13.6362C41.1102 13.6362 13.6367 41.1097 13.6367 75C13.6367 108.89 41.1102 136.364 75.0005 136.364Z" fill="#ECF0F9"/>
<path d="M68.1817 68.1817L37.5 119.318L88.6362 88.6362L119.318 37.5L68.1817 68.1817Z" fill="#D5E3EF"/>
<path d="M75 0C33.409 0 0 33.409 0 75C0 116.591 33.409 150 75 150C116.591 150 150 116.591 150 75C150 33.409 116.591 0 75 0ZM75 136.364C41.25 136.364 13.6362 108.75 13.6362 75C13.6362 41.25 41.25 13.6362 75 13.6362C108.75 13.6362 136.364 41.25 136.364 75C136.364 108.75 108.75 136.364 75 136.364Z" fill="#595A66"/>
<path d="M18.7505 80.1138C18.7505 46.3638 46.3643 18.75 80.1143 18.75C95.796 18.75 110.114 24.5455 120.683 34.4317C109.432 21.4772 93.4095 13.6362 75.0005 13.6362C41.2505 13.6362 13.6367 41.25 13.6367 75C13.6367 93.409 21.4777 109.432 34.4322 120.682C24.546 110.114 18.7505 95.7955 18.7505 80.1138Z" fill="#D5E3EF"/>
<path d="M17.0455 78.4088H3.40898C1.36377 78.4088 0 77.0453 0 74.9998C0 72.9543 1.36377 71.5908 3.40898 71.5908H17.0452C19.0907 71.5908 20.4542 72.9546 20.4542 74.9998C20.4545 77.0453 19.091 78.4088 17.0455 78.4088Z" fill="#595A66"/>
<path d="M13.9777 71.5908C13.6367 72.6136 13.6367 73.9771 13.6367 74.9998C13.6367 76.0226 13.6367 77.386 13.9777 78.4088H17.046C17.7277 78.4088 18.4098 78.0678 18.7505 77.727C18.7505 76.0226 19.0915 73.977 19.0915 72.2726C18.7505 71.9315 18.0688 71.5908 17.046 71.5908H13.9777Z" fill="#494A52"/>
<path d="M146.59 78.409H132.954C130.908 78.409 129.545 77.0452 129.545 75C129.545 72.9545 130.908 71.591 132.954 71.591H146.59C148.635 71.591 149.999 72.9548 149.999 75C149.999 77.0455 148.635 78.409 146.59 78.409ZM71.5898 17.0455V3.40898C71.5898 1.36377 72.9533 0 74.9988 0C77.0443 0 78.4078 1.36377 78.4078 3.40898V17.0452C78.4078 19.0907 77.044 20.4542 74.9988 20.4542C72.9533 20.4545 71.5898 19.091 71.5898 17.0455Z" fill="#595A66"/>
<path d="M74.9988 13.6362C73.9761 13.6362 72.6126 13.6362 71.5898 13.9772V17.0455C71.5898 18.0683 71.9309 18.75 72.6126 19.4317C74.3171 19.0907 76.0216 19.0907 78.0671 19.0907C78.0671 18.409 78.4081 17.727 78.4081 17.0452V13.9772C77.3851 13.6362 76.0216 13.6362 74.9988 13.6362Z" fill="#494A52"/>
<path d="M71.5898 146.591V132.955C71.5898 130.909 72.9536 129.546 74.9988 129.546C77.0443 129.546 78.4078 130.91 78.4078 132.955V146.591C78.4078 148.637 77.044 150 74.9988 150C72.9533 150 71.5898 148.636 71.5898 146.591Z" fill="#595A66"/>
<path d="M74.9988 112.5C72.9533 112.5 71.5898 111.136 71.5898 109.091V40.909C71.5898 38.8635 72.9536 37.5 74.9988 37.5C77.0443 37.5 78.4078 38.8638 78.4078 40.909V109.091C78.4078 111.136 77.0443 112.5 74.9988 112.5Z" fill="#B0C4D9"/>
<path d="M71.5898 98.5227L78.4078 94.4317V62.3862L71.5898 66.1362V98.5227Z" fill="#89ABC6"/>
<path d="M91.7064 91.7045C90.3427 93.0682 88.2974 93.0682 86.9337 91.7045L57.9564 62.7272C56.5927 61.3635 56.5927 59.3182 57.9564 57.9545C59.3202 56.5907 61.3654 56.5907 62.7292 57.9545L91.7064 86.9317C93.0702 88.2955 93.0702 90.6817 91.7064 91.7045Z" fill="#B0C4D9"/>
<path d="M85.5676 90.3408L88.6356 88.636L90.3403 85.5681L71.2493 66.4771L68.1811 68.1815L66.4766 71.2498L85.5676 90.3408Z" fill="#89ABC6"/>
<path d="M37.5 74.9998C37.5 72.9543 38.8638 71.5908 40.909 71.5908H109.091C111.136 71.5908 112.5 72.9546 112.5 74.9998C112.5 77.0453 111.136 78.4088 109.091 78.4088H40.909C38.8638 78.4088 37.5 77.0453 37.5 74.9998Z" fill="#B0C4D9"/>
<path d="M62.3867 78.4088H94.4322L98.5232 71.5908H66.1367L62.3867 78.4088Z" fill="#89ABC6"/>
<path d="M85.2279 85.2271L64.7734 64.7726L115.91 34.0908L85.2279 85.2271Z" fill="#F04B4D"/>
<path d="M64.7716 64.7729L85.2261 85.2274L34.0898 115.909L64.7716 64.7729Z" fill="#4C9CD6"/>
<path d="M64.7716 64.7729L34.0898 115.909L74.9988 75.0002L64.7716 64.7729Z" fill="#70B7E5"/>
<path d="M75.0007 74.9998L115.91 34.0908L64.7734 64.7726L75.0007 74.9998Z" fill="#F26A56"/>
<path d="M75.0019 81.8182C78.7675 81.8182 81.8201 78.7655 81.8201 74.9999C81.8201 71.2343 78.7675 68.1816 75.0019 68.1816C71.2362 68.1816 68.1836 71.2343 68.1836 74.9999C68.1836 78.7655 71.2362 81.8182 75.0019 81.8182Z" fill="#595A66"/>
<path d="M77.727 68.8638C78.0681 69.8865 78.4088 70.5683 78.4088 71.591C78.4088 75.341 75.3405 78.4093 71.5905 78.4093C70.5678 78.4093 69.545 78.0683 68.8633 77.7275C69.886 80.1138 72.2723 81.8186 74.9995 81.8186C78.7495 81.8186 81.8178 78.7503 81.8178 75.0003C81.8181 72.2728 80.1136 69.8862 77.727 68.8638Z" fill="#494A52"/>
<path d="M75 0C33.409 0 0 33.409 0 75C3.75 75 6.81826 72.2728 7.15898 68.5228C8.86377 52.159 16.0228 37.159 27.2728 26.25C38.1817 15.6817 52.5 8.52275 68.5228 7.15898C72.2728 6.81826 75 3.75 75 0Z" fill="#6F707E"/>
<path d="M75 150C116.591 150 150 116.591 150 75C146.25 75 143.182 77.7272 142.841 81.4772C141.477 97.5 134.318 111.818 123.75 122.727C112.841 133.977 98.1817 141.136 81.4772 142.841C77.7272 143.182 75 146.25 75 150Z" fill="#494A52"/>
<path d="M73.2943 74.9998C74.2357 74.9998 74.9988 74.2367 74.9988 73.2953C74.9988 72.3539 74.2357 71.5908 73.2943 71.5908C72.353 71.5908 71.5898 72.3539 71.5898 73.2953C71.5898 74.2367 72.353 74.9998 73.2943 74.9998Z" fill="#6F707E"/>
</g>
<defs>
<clipPath id="clip0_794_7117">
<rect width="150" height="150" fill="white"/>
</clipPath>
</defs>
</svg>
