<svg width="150" height="150" viewBox="0 0 150 150" fill="none" xmlns="http://www.w3.org/2000/svg">
<path d="M122.537 72.9788L118.727 42.0259L111.586 42.9048L111.589 42.8998L97.7465 35.1095C96.2699 34.2786 94.5754 33.9171 92.8882 34.073L71.0311 36.0945C69.7068 36.2169 68.4311 36.6543 67.3102 37.3701C66.1894 38.0858 65.256 39.0593 64.5879 40.2092L49.1825 66.7251C48.0449 68.683 48.9378 71.194 51.0563 71.9941L51.6865 72.232C52.8988 72.6899 54.1447 72.9551 55.3901 73.0588L53.4381 74.7589L49.5328 78.1614L38.4256 87.636C36.4483 89.3583 36.243 92.3554 37.9653 94.3326L39.0921 95.6231C41.304 98.1597 45.1539 98.423 47.6951 96.2105L51.9402 101.08C53.3203 102.665 55.3424 103.366 57.2851 103.127C58.4929 102.978 59.6281 102.47 60.5429 101.667L64.7833 106.536C66.1684 108.126 68.1902 108.822 70.1329 108.583C71.3404 108.436 72.4758 107.929 73.3913 107.128L75.6957 109.12C77.9082 111.66 81.7625 111.923 84.3037 109.711L87.4364 106.978L113.773 86.4664L113.801 86.4404L124.192 86.4301L122.537 72.9788Z" fill="#F29F5C"/>
<path d="M111.25 78.4661L111.222 78.4922L84.8851 99.0034L81.7524 101.737C79.2115 103.949 75.3569 103.686 73.1444 101.145L70.84 99.1537C69.9245 99.9548 68.7891 100.462 67.5816 100.609C65.6389 100.848 63.6174 100.151 62.232 98.5622L57.9916 93.6928C57.0766 94.4951 55.9415 95.0036 54.7338 95.1524C52.7911 95.3914 50.769 94.6907 49.3889 93.1054L45.1438 88.2363C42.9682 90.1306 39.8358 90.2044 37.5908 88.5958C36.4394 90.3319 36.5314 92.685 37.9666 94.3326L39.0934 95.6232C41.3053 98.1597 45.1552 98.4231 47.6964 96.2106L51.9415 101.08C53.3217 102.665 55.3437 103.366 57.2864 103.127C58.4942 102.978 59.6294 102.47 60.5442 101.667L64.7846 106.537C66.1698 108.126 68.1915 108.822 70.1342 108.583C71.3417 108.436 72.4771 107.929 73.3926 107.128L75.6971 109.12C77.9096 111.661 81.7638 111.924 84.305 109.711L87.4377 106.978L113.774 86.4668L113.803 86.4407L124.194 86.4304L123.044 77.0918L111.25 78.4661Z" fill="#D37D42"/>
<path d="M116.043 91.8549L101.932 79.6879L98.008 76.3071L95.2002 73.889L83.1279 63.4827L84.5221 51.6146C84.9938 47.6007 82.467 43.8428 78.5717 42.7649L52.2558 35.4832C50.9051 35.1095 49.4667 35.2131 48.1834 35.7765C46.9001 36.3399 45.8505 37.3287 45.2114 38.5761L41.9021 45.036L27.6967 44.0719L24.058 75.0456L22.4766 88.506L36.304 89.4256L36.3328 89.4517L65.22 114.352L68.3679 117.068C70.9211 119.266 74.7739 118.982 76.9723 116.429L81.1852 111.54C82.1051 112.336 83.2434 112.837 84.4518 112.977C86.3957 113.206 88.4136 112.498 89.79 110.901L94.0034 106.008C94.9227 106.806 96.0608 107.308 97.2694 107.45C99.2133 107.678 101.232 106.966 102.603 105.373L106.821 100.481C109.374 102.679 113.222 102.394 115.42 99.8456L116.54 98.5486C118.251 96.5623 118.029 93.5664 116.043 91.8549Z" fill="#F9C295"/>
<path d="M116.043 91.855L111.745 88.1489C113.142 90.0014 113.113 92.6366 111.537 94.4665L110.348 95.8431C108.015 98.5487 103.93 98.851 101.22 96.5173L96.7419 101.711C95.2861 103.402 93.1436 104.158 91.08 103.915C89.7969 103.765 88.5889 103.232 87.613 102.385L83.14 107.579C81.6789 109.274 79.5371 110.025 77.4734 109.783C76.1906 109.634 74.9823 109.103 74.0058 108.258L69.5334 113.447C68.7231 114.389 67.6573 115.076 66.4648 115.425L68.3688 117.068C70.9221 119.266 74.7749 118.982 76.9733 116.429L81.1862 111.541C82.1061 112.337 83.2443 112.837 84.4528 112.978C86.3966 113.206 88.4146 112.498 89.7909 110.902L94.0044 106.009C94.9237 106.806 96.0617 107.308 97.2704 107.45C99.2142 107.679 101.232 106.967 102.604 105.374L106.822 100.481C109.375 102.68 113.223 102.395 115.421 99.8459L116.541 98.549C118.252 96.5624 118.03 93.5665 116.043 91.855Z" fill="#E59F6A"/>
<path d="M108.253 98.8516L100.521 92.1848C100.079 91.814 99.5078 91.6324 98.9323 91.6791C98.3568 91.7258 97.8228 91.9972 97.4457 92.4345C97.0687 92.8718 96.8789 93.4399 96.9175 94.016C96.956 94.5922 97.2197 95.13 97.6516 95.5132L105.37 102.168L106.825 100.481C107.388 100.964 108.036 101.341 108.735 101.591C108.983 101.149 109.07 100.635 108.982 100.136C108.895 99.6363 108.637 99.1827 108.253 98.8516ZM95.8909 107.116C96.4203 106.219 96.2506 105.044 95.4332 104.339L88.4876 98.3506C88.0449 97.9798 87.4741 97.7982 86.8986 97.8449C86.3231 97.8916 85.7891 98.163 85.4121 98.6003C85.0351 99.0376 84.8453 99.6057 84.8838 100.182C84.9223 100.758 85.1861 101.296 85.618 101.679L92.5636 107.668L92.5724 107.674L94.0074 106.008C94.563 106.488 95.2012 106.864 95.8909 107.116Z" fill="#E59F6A"/>
<path d="M37.0248 89.3945L35.3511 91.6047C33.5285 94.0114 34.0019 97.44 36.4087 99.2628C38.8154 101.085 42.244 100.612 44.0668 98.2052L45.7406 95.9951C47.5631 93.5883 47.0897 90.1597 44.683 88.3369C42.2762 86.5143 38.8473 86.9878 37.0248 89.3945ZM47.2189 94.043L44.0668 98.2052C42.2443 100.612 42.7177 104.041 45.1245 105.863C47.5312 107.686 50.9598 107.213 52.7826 104.806L55.9347 100.644C57.7572 98.2369 57.2838 94.8083 54.8771 92.9854C52.47 91.1629 49.0414 91.6363 47.2189 94.043Z" fill="#F29F5C"/>
<path d="M57.0804 99.1334L52.7847 104.806C50.9621 107.213 51.4355 110.641 53.8423 112.464C56.249 114.287 59.6776 113.813 61.5004 111.406L65.7962 105.734C67.6188 103.327 67.1453 99.8986 64.7386 98.0758C62.3319 96.2529 58.9033 96.7267 57.0804 99.1334Z" fill="#F29F5C"/>
<path d="M66.0445 105.404L61.4994 111.406C59.6768 113.813 60.1502 117.241 62.557 119.064C64.9637 120.887 68.3923 120.413 70.2151 118.006L74.7602 112.005C76.5828 109.598 76.1094 106.17 73.7026 104.347C71.2956 102.524 67.867 102.998 66.0445 105.404ZM111.588 42.8998L97.745 35.1095C96.2684 34.2786 94.5738 33.9171 92.8867 34.073L71.0296 36.0945C69.7053 36.2169 68.4296 36.6543 67.3087 37.3701C66.1879 38.0858 65.2545 39.0593 64.5864 40.2092L49.1809 66.7251C48.0433 68.6833 48.9363 71.194 51.0548 71.9941L51.6849 72.232C57.3319 74.3648 63.7092 72.5499 67.3868 67.7637L73.2893 60.0821C73.2893 60.0821 87.4774 76.5096 103.098 57.3252" fill="#F29F5C"/>
<path d="M149.981 90.5694L142.741 31.7558C142.706 31.4695 142.615 31.1928 142.472 30.9417C142.33 30.6906 142.14 30.47 141.913 30.2924C141.685 30.1149 141.425 29.9838 141.147 29.9068C140.869 29.8298 140.578 29.8084 140.292 29.8436L123.362 31.9278C118.965 32.4692 115.828 36.487 116.369 40.8838L122.183 88.1102C122.683 92.1757 126.155 95.1637 130.152 95.1637C130.478 95.1637 130.808 95.1438 131.139 95.1031L148.069 93.0189C148.647 92.9475 149.174 92.6494 149.532 92.19C149.891 91.7307 150.052 91.1478 149.981 90.5694Z" fill="#5C9CEE"/>
<path d="M149.985 90.569L149.19 84.1132C149.006 84.3845 148.766 84.6133 148.487 84.7843C148.207 84.9552 147.894 85.0643 147.569 85.1043L129.822 87.289C129.479 87.3313 129.133 87.3525 128.787 87.3525C125.799 87.3525 123.091 85.7582 121.594 83.2979L122.186 88.1096C122.687 92.1751 126.158 95.163 130.155 95.163C130.481 95.163 130.811 95.1431 131.142 95.1024L148.072 93.0182C148.359 92.983 148.635 92.8917 148.886 92.7495C149.137 92.6074 149.358 92.4172 149.536 92.1897C149.713 91.9623 149.844 91.7021 149.921 91.424C149.998 91.1459 150.02 90.8554 149.985 90.569Z" fill="#3580D3"/>
<path d="M26.6358 31.9274L9.70578 29.8432C9.41939 29.8079 9.12884 29.8293 8.85073 29.9062C8.57262 29.9832 8.3124 30.1142 8.08495 30.2918C7.85749 30.4694 7.66726 30.6901 7.52513 30.9412C7.38299 31.1923 7.29174 31.469 7.25658 31.7554L0.0164665 90.5693C-0.0547223 91.1476 0.106743 91.7306 0.465346 92.1899C0.823949 92.6492 1.35032 92.9472 1.92867 93.0185L18.8587 95.1026C19.1903 95.1434 19.5199 95.1633 19.846 95.1633C23.8421 95.1633 27.3143 92.175 27.8147 88.1098L33.6283 40.8834C34.1698 36.4866 31.0329 32.4688 26.6358 31.9274Z" fill="#ED5575"/>
<path d="M0.016454 90.569L0.811275 84.1132C0.995024 84.3845 1.23473 84.6133 1.51428 84.7843C1.79383 84.9552 2.10674 85.0643 2.43197 85.1043L20.1791 87.289C20.5265 87.3317 20.8725 87.3525 21.2141 87.3525C24.2024 87.3525 26.9097 85.7582 28.4074 83.2979L27.815 88.1096C27.3146 92.1751 23.8426 95.163 19.8463 95.163C19.5205 95.163 19.1903 95.1431 18.859 95.1024L1.92895 93.0182C1.64255 92.983 1.3659 92.8917 1.11479 92.7495C0.863681 92.6074 0.643031 92.4172 0.465439 92.1897C0.287846 91.9623 0.15679 91.7021 0.0797529 91.424C0.00271594 91.1459 -0.0187931 90.8554 0.016454 90.569Z" fill="#CC3A60"/>
<path d="M135.935 85.3997C138.281 85.3997 140.182 83.498 140.182 81.1522C140.182 78.8064 138.281 76.9048 135.935 76.9048C133.589 76.9048 131.688 78.8064 131.688 81.1522C131.688 83.498 133.589 85.3997 135.935 85.3997Z" fill="#EBEEF2"/>
<path d="M13.8256 85.3997C16.1714 85.3997 18.073 83.498 18.073 81.1522C18.073 78.8064 16.1714 76.9048 13.8256 76.9048C11.4798 76.9048 9.57812 78.8064 9.57812 81.1522C9.57812 83.498 11.4798 85.3997 13.8256 85.3997Z" fill="#EBEEF2"/>
</svg>
