<svg width="18" height="21" viewBox="0 0 18 21" fill="none" xmlns="http://www.w3.org/2000/svg">
<path d="M4.5 5.25H7.5M4.5 10.5H13.5M4.5 13.5H13.5M4.5 16.5H7.5M3 20.25H15C15.3978 20.25 15.7794 20.092 16.0607 19.8107C16.342 19.5294 16.5 19.1478 16.5 18.75V2.25C16.5 1.85218 16.342 1.47064 16.0607 1.18934C15.7794 0.908035 15.3978 0.75 15 0.75H3C2.60218 0.75 2.22064 0.908035 1.93934 1.18934C1.65804 1.47064 1.5 1.85218 1.5 2.25V18.75C1.5 19.1478 1.65804 19.5294 1.93934 19.8107C2.22064 20.092 2.60218 20.25 3 20.25Z" stroke="#F28211" stroke-width="1.5" stroke-linecap="round" stroke-linejoin="round"/>
<path d="M13.5 5.625C13.7071 5.625 13.875 5.45711 13.875 5.25C13.875 5.04289 13.7071 4.875 13.5 4.875C13.2929 4.875 13.125 5.04289 13.125 5.25C13.125 5.45711 13.2929 5.625 13.5 5.625Z" fill="#F28211" stroke="#F28211" stroke-width="0.75"/>
</svg>
