<svg width="26" height="30" viewBox="0 0 26 30" fill="none" xmlns="http://www.w3.org/2000/svg">
<path d="M12.1661 14.454L0.507812 27.1071C0.508907 27.1093 0.508907 27.1127 0.510002 27.1149C0.868061 28.4889 2.09444 29.5 3.55076 29.5C4.13329 29.5 4.67969 29.3388 5.14834 29.0566L5.18557 29.0342L18.3078 21.2912L12.1661 14.454Z" fill="#EA4335"/>
<path d="M23.9575 12.2994L23.9465 12.2915L18.2811 8.93343L11.8984 14.7415L18.3041 21.2898L23.9388 17.9653C24.9265 17.4188 25.5977 16.354 25.5977 15.1267C25.5977 13.9062 24.9364 12.8469 23.9575 12.2994Z" fill="#FBBC04"/>
<path d="M0.505746 3.09205C0.435667 3.35631 0.398438 3.634 0.398438 3.92066V26.2797C0.398438 26.5663 0.435667 26.844 0.506841 27.1072L12.5648 14.7777L0.505746 3.09205Z" fill="#4285F4"/>
<path d="M12.2487 15.0999L18.282 8.93119L5.17509 1.16017C4.69878 0.867918 4.14253 0.699958 3.54795 0.699958C2.09163 0.699958 0.863059 1.71332 0.505001 3.08837C0.505001 3.08949 0.503906 3.09061 0.503906 3.09173L12.2487 15.0999Z" fill="#34A853"/>
</svg>
