<svg width="16" height="15" viewBox="0 0 16 15" fill="none" xmlns="http://www.w3.org/2000/svg">
<path d="M8.00125 11.8957L4.54292 13.979C4.39014 14.0762 4.23042 14.1179 4.06375 14.104C3.89708 14.0901 3.75125 14.0346 3.62625 13.9373C3.50125 13.8401 3.40403 13.7187 3.33458 13.5732C3.26514 13.4276 3.25125 13.2643 3.29292 13.0832L4.20958 9.14567L1.14708 6.49984C1.0082 6.37484 0.921528 6.23234 0.887084 6.07234C0.85264 5.91234 0.862917 5.75623 0.917917 5.604C0.972917 5.45178 1.05625 5.32678 1.16792 5.229C1.27958 5.13123 1.43236 5.06873 1.62625 5.0415L5.66792 4.68734L7.23042 0.979004C7.29986 0.812337 7.40764 0.687337 7.55375 0.604004C7.69986 0.52067 7.84903 0.479004 8.00125 0.479004C8.15347 0.479004 8.30264 0.52067 8.44875 0.604004C8.59486 0.687337 8.70264 0.812337 8.77208 0.979004L10.3346 4.68734L14.3762 5.0415C14.5707 5.06928 14.7235 5.13178 14.8346 5.229C14.9457 5.32623 15.029 5.45123 15.0846 5.604C15.1401 5.75678 15.1507 5.91317 15.1163 6.07317C15.0818 6.23317 14.9949 6.37539 14.8554 6.49984L11.7929 9.14567L12.7096 13.0832C12.7513 13.2637 12.7374 13.4271 12.6679 13.5732C12.5985 13.7193 12.5013 13.8407 12.3763 13.9373C12.2513 14.034 12.1054 14.0896 11.9388 14.104C11.7721 14.1184 11.6124 14.0768 11.4596 13.979L8.00125 11.8957Z" fill="#FFCC00"/>
</svg>
